<svg width="260" height="146" viewBox="0 0 260 146" fill="none" xmlns="http://www.w3.org/2000/svg">
<path d="M260 0.12915H0.111389V145.371H260V0.12915Z" fill="#E6E6E6"/>
<path d="M252.569 18.3455H7.54242V136.777H252.569V18.3455Z" fill="white"/>
<path d="M259.889 0H0V9.63453H259.889V0Z" fill="#6C63FF"/>
<path d="M183.237 29.4382H103.465C103.294 29.4187 103.138 29.3457 103.025 29.233C102.912 29.1203 102.849 28.9756 102.849 28.8257C102.849 28.6758 102.912 28.531 103.025 28.4183C103.138 28.3056 103.294 28.2327 103.465 28.2131H183.237C183.407 28.2327 183.564 28.3056 183.677 28.4183C183.79 28.531 183.853 28.6758 183.853 28.8257C183.853 28.9756 183.79 29.1203 183.677 29.233C183.564 29.3457 183.407 29.4187 183.237 29.4382V29.4382Z" fill="#CCCCCC"/>
<path d="M127.963 36.1763H77.2431C77.0729 36.1567 76.9165 36.0838 76.8033 35.9711C76.69 35.8584 76.6276 35.7136 76.6276 35.5637C76.6276 35.4138 76.69 35.2691 76.8033 35.1564C76.9165 35.0437 77.0729 34.9708 77.2431 34.9512H127.963C128.133 34.9708 128.289 35.0437 128.403 35.1564C128.516 35.2691 128.578 35.4138 128.578 35.5637C128.578 35.7136 128.516 35.8584 128.403 35.9711C128.289 36.0838 128.133 36.1567 127.963 36.1763V36.1763Z" fill="#CCCCCC"/>
<path d="M183.237 36.2988H132.518C132.347 36.2792 132.191 36.2063 132.078 36.0936C131.965 35.9809 131.902 35.8362 131.902 35.6863C131.902 35.5364 131.965 35.3916 132.078 35.2789C132.191 35.1662 132.347 35.0933 132.518 35.0737H183.237C183.408 35.0933 183.564 35.1662 183.677 35.2789C183.79 35.3916 183.853 35.5364 183.853 35.6863C183.853 35.8362 183.79 35.9809 183.677 36.0936C183.564 36.2063 183.408 36.2792 183.237 36.2988H183.237Z" fill="#CCCCCC"/>
<path d="M128.086 42.9142H77.3663C77.196 42.8946 77.0396 42.8217 76.9264 42.709C76.8132 42.5963 76.7507 42.4515 76.7507 42.3016C76.7507 42.1518 76.8132 42.007 76.9264 41.8943C77.0396 41.7816 77.196 41.7087 77.3663 41.6891H128.086C128.256 41.7087 128.412 41.7816 128.526 41.8943C128.639 42.007 128.701 42.1518 128.701 42.3016C128.701 42.4515 128.639 42.5963 128.526 42.709C128.412 42.8217 128.256 42.8946 128.086 42.9142V42.9142Z" fill="#CCCCCC"/>
<path d="M128.209 49.6522H77.4893C77.319 49.6326 77.1627 49.5597 77.0495 49.447C76.9362 49.3343 76.8738 49.1895 76.8738 49.0397C76.8738 48.8898 76.9362 48.745 77.0495 48.6323C77.1627 48.5196 77.319 48.4467 77.4893 48.4271H128.209C128.379 48.4467 128.535 48.5196 128.649 48.6323C128.762 48.745 128.824 48.8898 128.824 49.0397C128.824 49.1895 128.762 49.3343 128.649 49.447C128.535 49.5597 128.379 49.6326 128.209 49.6522V49.6522Z" fill="#CCCCCC"/>
<path d="M151.23 42.9142H136.703C136.533 42.8946 136.377 42.8217 136.263 42.709C136.15 42.5963 136.088 42.4515 136.088 42.3016C136.088 42.1518 136.15 42.007 136.263 41.8943C136.377 41.7816 136.533 41.7087 136.703 41.6891H151.23C151.4 41.7087 151.556 41.7816 151.669 41.8943C151.783 42.007 151.845 42.1518 151.845 42.3016C151.845 42.4515 151.783 42.5963 151.669 42.709C151.556 42.8217 151.4 42.8946 151.23 42.9142V42.9142Z" fill="#CCCCCC"/>
<path d="M151.23 49.5298H136.703C136.533 49.5102 136.377 49.4373 136.263 49.3246C136.15 49.2119 136.088 49.0671 136.088 48.9172C136.088 48.7674 136.15 48.6226 136.263 48.5099C136.377 48.3972 136.533 48.3243 136.703 48.3047H151.23C151.4 48.3243 151.556 48.3972 151.669 48.5099C151.783 48.6226 151.845 48.7674 151.845 48.9172C151.845 49.0671 151.783 49.2119 151.669 49.3246C151.556 49.4373 151.4 49.5102 151.23 49.5298V49.5298Z" fill="#CCCCCC"/>
<path d="M175.605 49.5298H161.078C160.908 49.5102 160.752 49.4373 160.638 49.3246C160.525 49.2119 160.463 49.0671 160.463 48.9172C160.463 48.7674 160.525 48.6226 160.638 48.5099C160.752 48.3972 160.908 48.3243 161.078 48.3047H175.605C175.775 48.3243 175.931 48.3972 176.044 48.5099C176.158 48.6226 176.22 48.7674 176.22 48.9172C176.22 49.0671 176.158 49.2119 176.044 49.3246C175.931 49.4373 175.775 49.5102 175.605 49.5298V49.5298Z" fill="#CCCCCC"/>
<path d="M91.4003 29.4382H76.8738C76.7035 29.4187 76.5472 29.3457 76.4339 29.233C76.3207 29.1203 76.2582 28.9756 76.2582 28.8257C76.2582 28.6758 76.3207 28.531 76.4339 28.4183C76.5472 28.3056 76.7035 28.2327 76.8738 28.2131H91.4003C91.5706 28.2327 91.7269 28.3056 91.8401 28.4183C91.9534 28.531 92.0158 28.6758 92.0158 28.8257C92.0158 28.9756 91.9534 29.1203 91.8401 29.233C91.7269 29.3457 91.5706 29.4187 91.4003 29.4382Z" fill="#CCCCCC"/>
<path d="M127.778 106.696H77.0585C76.8882 106.676 76.7318 106.603 76.6186 106.49C76.5054 106.378 76.4429 106.233 76.4429 106.083C76.4429 105.933 76.5054 105.788 76.6186 105.676C76.7318 105.563 76.8882 105.49 77.0585 105.471H127.778C127.948 105.49 128.105 105.563 128.218 105.676C128.331 105.788 128.394 105.933 128.394 106.083C128.394 106.233 128.331 106.378 128.218 106.49C128.105 106.603 127.948 106.676 127.778 106.696H127.778Z" fill="#CCCCCC"/>
<path d="M127.532 120.172H76.8122C76.6419 120.152 76.4856 120.079 76.3724 119.967C76.2592 119.854 76.1967 119.709 76.1967 119.559C76.1967 119.409 76.2592 119.265 76.3724 119.152C76.4856 119.039 76.6419 118.966 76.8122 118.947H127.532C127.702 118.966 127.858 119.039 127.972 119.152C128.085 119.265 128.147 119.409 128.147 119.559C128.147 119.709 128.085 119.854 127.972 119.967C127.858 120.079 127.702 120.152 127.532 120.172H127.532Z" fill="#CCCCCC"/>
<path d="M127.655 126.91H76.9354C76.7651 126.89 76.6087 126.817 76.4955 126.705C76.3823 126.592 76.3198 126.447 76.3198 126.297C76.3198 126.147 76.3823 126.003 76.4955 125.89C76.6087 125.777 76.7651 125.704 76.9354 125.685H127.655C127.825 125.704 127.982 125.777 128.095 125.89C128.208 126.003 128.27 126.147 128.27 126.297C128.27 126.447 128.208 126.592 128.095 126.705C127.982 126.817 127.825 126.89 127.655 126.91H127.655Z" fill="#CCCCCC"/>
<path d="M149.321 120.294H134.795C134.625 120.275 134.468 120.202 134.355 120.089C134.242 119.976 134.179 119.832 134.179 119.682C134.179 119.532 134.242 119.387 134.355 119.274C134.468 119.162 134.625 119.089 134.795 119.069H149.321C149.492 119.089 149.648 119.162 149.761 119.274C149.875 119.387 149.937 119.532 149.937 119.682C149.937 119.832 149.875 119.976 149.761 120.089C149.648 120.202 149.492 120.275 149.321 120.294V120.294Z" fill="#CCCCCC"/>
<path d="M149.321 126.91H134.795C134.625 126.89 134.468 126.817 134.355 126.705C134.242 126.592 134.179 126.447 134.179 126.297C134.179 126.147 134.242 126.003 134.355 125.89C134.468 125.777 134.625 125.704 134.795 125.685H149.321C149.492 125.704 149.648 125.777 149.761 125.89C149.875 126.003 149.937 126.147 149.937 126.297C149.937 126.447 149.875 126.592 149.761 126.705C149.648 126.817 149.492 126.89 149.321 126.91V126.91Z" fill="#CCCCCC"/>
<path d="M173.696 120.294H159.17C159 120.275 158.843 120.202 158.73 120.089C158.617 119.976 158.554 119.832 158.554 119.682C158.554 119.532 158.617 119.387 158.73 119.274C158.843 119.162 159 119.089 159.17 119.069H173.696C173.867 119.089 174.023 119.162 174.136 119.274C174.25 119.387 174.312 119.532 174.312 119.682C174.312 119.832 174.25 119.976 174.136 120.089C174.023 120.202 173.867 120.275 173.696 120.294V120.294Z" fill="#CCCCCC"/>
<path d="M183.299 113.434H103.526C103.356 113.414 103.2 113.341 103.086 113.229C102.973 113.116 102.911 112.971 102.911 112.821C102.911 112.671 102.973 112.527 103.086 112.414C103.2 112.301 103.356 112.228 103.526 112.209H183.299C183.469 112.228 183.625 112.301 183.739 112.414C183.852 112.527 183.914 112.671 183.914 112.821C183.914 112.971 183.852 113.116 183.739 113.229C183.625 113.341 183.469 113.414 183.299 113.434V113.434Z" fill="#CCCCCC"/>
<path d="M91.4618 113.434H76.9353C76.7651 113.414 76.6087 113.341 76.4955 113.229C76.3823 113.116 76.3198 112.971 76.3198 112.821C76.3198 112.671 76.3823 112.527 76.4955 112.414C76.6087 112.301 76.7651 112.228 76.9353 112.209H91.4618C91.6321 112.228 91.7884 112.301 91.9017 112.414C92.0149 112.527 92.0773 112.671 92.0773 112.821C92.0773 112.971 92.0149 113.116 91.9017 113.229C91.7884 113.341 91.6321 113.414 91.4618 113.434V113.434Z" fill="#CCCCCC"/>
<path d="M115.529 60.5363L95.8321 77.5095L115.529 94.4823L119.961 90.6151L105.065 77.6166L120.084 64.511L115.529 60.5363Z" fill="#E6E6E6"/>
<path d="M144.582 60.5363L164.279 77.5095L144.582 94.4823L140.15 90.6151L155.046 77.6166L140.027 64.511L144.582 60.5363Z" fill="#E6E6E6"/>
<path d="M115.529 60.5363L95.8321 77.5095L115.529 94.4823L119.961 90.6151L105.065 77.6166L120.084 64.511L115.529 60.5363Z" fill="#6C63FF"/>
<path d="M144.582 60.5363L164.279 77.5095L144.582 94.4823L140.15 90.6151L155.046 77.6166L140.027 64.511L144.582 60.5363Z" fill="#6C63FF"/>
</svg>
