<svg width="392" height="198" viewBox="0 0 392 146" fill="none" xmlns="http://www.w3.org/2000/svg">
<path d="M299.239 145.72H88.8981C87.0276 145.72 85.2337 145.03 83.911 143.8C82.5884 142.571 81.8453 140.904 81.8453 139.165C158.094 130.929 232.909 130.929 306.292 139.165C306.292 140.904 305.548 142.571 304.226 143.8C302.903 145.03 301.109 145.72 299.239 145.72Z" fill="#2F2E41"/>
<path d="M306.292 139.551L81.8453 139.165L107.858 98.4839L107.982 98.2911V8.63463C107.982 7.54639 108.213 6.46879 108.661 5.46337C109.109 4.45795 109.765 3.54441 110.593 2.77491C111.421 2.00541 112.404 1.39503 113.486 0.978617C114.568 0.562208 115.727 0.347932 116.898 0.348022H269.994C271.165 0.347932 272.325 0.562208 273.406 0.978617C274.488 1.39503 275.471 2.00541 276.299 2.77491C277.127 3.54441 277.783 4.45795 278.231 5.46337C278.679 6.46879 278.91 7.54639 278.91 8.63463V98.9081L306.292 139.551Z" fill="#3F3D56"/>
<path d="M116.695 6.13208C115.925 6.13288 115.187 6.41752 114.642 6.92355C114.098 7.42958 113.791 8.11567 113.791 8.8313V90.5791C113.791 91.2947 114.098 91.9808 114.642 92.4868C115.187 92.9928 115.925 93.2775 116.695 93.2783H271.442C272.212 93.2774 272.95 92.9928 273.495 92.4868C274.039 91.9807 274.345 91.2947 274.346 90.5791V8.8313C274.345 8.11568 274.039 7.42961 273.495 6.92359C272.95 6.41757 272.212 6.13291 271.442 6.13208H116.695Z" fill="white"/>
<path d="M117.343 104.075C117.105 104.076 116.872 104.139 116.672 104.259C116.472 104.378 116.312 104.548 116.212 104.749L108.197 120.944C108.11 121.12 108.072 121.314 108.086 121.508C108.1 121.701 108.167 121.888 108.28 122.051C108.392 122.215 108.547 122.349 108.73 122.442C108.913 122.535 109.119 122.584 109.328 122.584H277.884C278.097 122.584 278.305 122.534 278.491 122.438C278.676 122.342 278.832 122.203 278.943 122.036C279.055 121.868 279.118 121.676 279.128 121.479C279.137 121.282 279.092 121.086 278.997 120.91L270.285 104.715C270.182 104.522 270.024 104.36 269.827 104.247C269.63 104.134 269.403 104.075 269.172 104.075H117.343Z" fill="#2F2E41"/>
<path d="M193.446 4.78256C194.477 4.78256 195.313 4.00568 195.313 3.04734C195.313 2.08901 194.477 1.31213 193.446 1.31213C192.415 1.31213 191.579 2.08901 191.579 3.04734C191.579 4.00568 192.415 4.78256 193.446 4.78256Z" fill="white"/>
<path d="M176.878 125.669C176.605 125.67 176.339 125.753 176.122 125.908C175.905 126.063 175.748 126.28 175.677 126.525L173.666 133.466C173.616 133.637 173.61 133.817 173.647 133.991C173.684 134.166 173.764 134.33 173.88 134.47C173.996 134.611 174.146 134.726 174.317 134.804C174.488 134.883 174.677 134.924 174.868 134.924H213.104C213.302 134.924 213.498 134.88 213.674 134.795C213.851 134.711 214.003 134.588 214.118 134.438C214.233 134.288 214.308 134.114 214.336 133.931C214.364 133.749 214.345 133.563 214.28 133.388L211.695 126.448C211.61 126.22 211.451 126.023 211.241 125.884C211.03 125.744 210.777 125.669 210.519 125.669H176.878Z" fill="#2F2E41"/>
<path d="M278.91 96.9417V98.4839H107.858L107.987 98.2913V96.9417H278.91Z" fill="#2F2E41"/>
<path d="M274.139 10.9523C275.055 10.9523 275.798 10.2617 275.798 9.40984C275.798 8.55799 275.055 7.86743 274.139 7.86743C273.222 7.86743 272.479 8.55799 272.479 9.40984C272.479 10.2617 273.222 10.9523 274.139 10.9523Z" fill="white"/>
<path d="M253.866 65.5503H134.271C133.684 65.5497 133.121 65.3326 132.706 64.9467C132.291 64.5608 132.057 64.0376 132.056 63.4918V35.9186C132.057 35.3728 132.291 34.8496 132.706 34.4637C133.121 34.0778 133.684 33.8607 134.271 33.8601H253.866C254.453 33.8607 255.016 34.0778 255.431 34.4637C255.846 34.8496 256.08 35.3728 256.08 35.9186V63.4918C256.08 64.0376 255.846 64.5608 255.431 64.9467C255.016 65.3326 254.453 65.5497 253.866 65.5503V65.5503ZM134.271 34.6835C133.919 34.6839 133.581 34.8141 133.332 35.0456C133.083 35.2772 132.943 35.5911 132.942 35.9186V63.4918C132.943 63.8193 133.083 64.1332 133.332 64.3648C133.581 64.5963 133.919 64.7266 134.271 64.7269H253.866C254.218 64.7266 254.556 64.5963 254.805 64.3648C255.054 64.1332 255.194 63.8193 255.195 63.4918V35.9186C255.194 35.5911 255.054 35.2772 254.805 35.0456C254.556 34.8141 254.218 34.6838 253.866 34.6835L134.271 34.6835Z" fill="#E6E6E6"/>
<path d="M152.854 57.0323C157.836 57.0323 161.875 53.2782 161.875 48.6473C161.875 44.0163 157.836 40.2622 152.854 40.2622C147.871 40.2622 143.832 44.0163 143.832 48.6473C143.832 53.2782 147.871 57.0323 152.854 57.0323Z" fill="#E6E6E6"/>
<path d="M173.689 43.057C173.492 43.0567 173.296 43.0926 173.113 43.1627C172.93 43.2328 172.764 43.3357 172.624 43.4655C172.485 43.5953 172.374 43.7495 172.298 43.9192C172.222 44.0889 172.183 44.2708 172.183 44.4545C172.183 44.6382 172.222 44.8201 172.298 44.9898C172.374 45.1595 172.485 45.3137 172.624 45.4435C172.764 45.5733 172.93 45.6762 173.113 45.7463C173.296 45.8164 173.492 45.8523 173.689 45.852H244.573C244.972 45.852 245.354 45.7048 245.636 45.4427C245.918 45.1806 246.076 44.8252 246.076 44.4545C246.076 44.0839 245.918 43.7284 245.636 43.4663C245.354 43.2042 244.972 43.057 244.573 43.057H173.689Z" fill="#E6E6E6"/>
<path d="M173.689 51.4421C173.29 51.4421 172.908 51.5894 172.626 51.8515C172.344 52.1135 172.186 52.469 172.186 52.8396C172.186 53.2103 172.344 53.5658 172.626 53.8278C172.908 54.0899 173.29 54.2372 173.689 54.2372H204.191C204.589 54.2372 204.972 54.0899 205.254 53.8278C205.536 53.5658 205.694 53.2103 205.694 52.8396C205.694 52.469 205.536 52.1135 205.254 51.8515C204.972 51.5894 204.589 51.4421 204.191 51.4421H173.689Z" fill="#E6E6E6"/>
<g opacity="0.7">
<path opacity="0.7" d="M388.369 110.668H361.489L361.86 107.942C369.456 101.79 374.368 85.4021 374.368 85.4021C374.259 85.4158 374.151 85.436 374.045 85.4624C369.59 86.2728 366.419 87.9237 364.203 89.9094L365.146 82.6563C379.18 79.9304 384.745 63.1872 384.745 63.1872C375.79 64.9787 370.206 67.7514 366.738 70.3834L368.119 59.728C377.609 62.6648 387.426 47.0634 387.426 47.0634L387.054 46.9931L387.24 46.8859L386.958 46.9763C376.469 44.937 370.863 50.3451 369.044 52.592L369.181 51.5472C368.904 52.217 368.634 52.8733 368.372 53.5163V53.543C367.629 55.358 366.95 57.1507 366.334 58.921C365.797 60.4323 365.294 61.9281 364.826 63.4082V63.3881C364.826 63.3881 364.392 53.8578 353.25 51.3497C353.25 51.3497 354.42 72.1348 363.248 68.7325C362.432 71.7463 361.763 74.6463 361.184 77.4625C360.815 79.2953 360.494 81.0813 360.219 82.8203L360.167 82.8739L360.219 82.8337L360.197 82.971C359.949 84.5494 359.739 86.0875 359.565 87.5855C359.736 84.6989 359.153 76.3608 348.26 68.5249C348.26 68.5249 333.781 91.4766 358.47 95.9839C358.526 96.0274 358.581 96.071 358.633 96.1112L358.596 96.0074L358.819 96.0509L358.919 94.8722C358.622 99.7918 358.65 104.723 359.005 109.64V109.64C359.031 109.975 359.057 110.309 359.083 110.628H331.895C321.521 129.979 337.657 140.585 337.657 140.585H382.209C399.51 120.915 388.369 110.668 388.369 110.668Z" fill="url(#paint0_linear)"/>
</g>
<path opacity="0.6" d="M359.974 118.015C359.974 118.015 352.92 90.2208 368.513 54.3901" stroke="#535461" stroke-width="3" stroke-miterlimit="10"/>
<path d="M332.5 109.643H387.077C387.077 109.643 397.843 122.033 381.136 140.451H338.069C338.069 140.451 322.475 127.726 332.5 109.643Z" fill="#6C63FF"/>
<path d="M367.73 56.2319C367.73 56.2319 373.154 47.5254 386.148 50.2044C386.148 50.2044 375.407 66.6998 365.728 61.2985L367.73 56.2319Z" fill="#6561D7"/>
<path d="M364.292 65.4709C364.292 65.4709 363.872 56.5668 353.105 54.2228C353.105 54.2228 354.219 73.645 362.758 70.4638L364.292 65.4709Z" fill="#6561D7"/>
<path d="M360.772 78.6211C360.772 78.6211 362.758 69.2917 383.549 65.2733C383.549 65.2733 376.919 84.5683 359.814 83.7947L360.772 78.6211Z" fill="#6561D7"/>
<path d="M359.086 89.0924C359.086 89.0924 361.273 79.3378 348.279 70.2964C348.279 70.2964 334.17 91.9522 358.481 96.0241L359.086 89.0924Z" fill="#6561D7"/>
<path d="M358.697 102.5C358.697 102.5 357.189 88.714 373.525 86.035C373.525 86.035 367.559 105.286 358.674 108.719L358.697 102.5Z" fill="#6561D7"/>
<path opacity="0.3" d="M365.914 61.4223C365.914 61.4223 380.022 51.7112 385.963 50.0369" stroke="#535461" stroke-miterlimit="10"/>
<path opacity="0.3" d="M359.788 83.6909C359.788 83.6909 376.867 67.2825 383.549 65.2733" stroke="#535461" stroke-miterlimit="10"/>
<path opacity="0.3" d="M353.105 54.2228C353.105 54.2228 363.501 66.9477 362.758 70.2963" stroke="#535461" stroke-miterlimit="10"/>
<path opacity="0.3" d="M348.279 70.2964C348.279 70.2964 353.848 93.0672 358.303 96.081" stroke="#535461" stroke-miterlimit="10"/>
<path opacity="0.3" d="M358.674 108.806C358.674 108.806 367.585 86.7048 373.525 86.035" stroke="#535461" stroke-miterlimit="10"/>
<g opacity="0.1">
<path opacity="0.1" d="M387.077 109.643H332.5C332.377 109.867 332.258 110.092 332.128 110.313H385.22C385.22 110.313 395.723 122.405 379.874 140.451H381.136C397.843 122.033 387.077 109.643 387.077 109.643Z" fill="black"/>
</g>
<g opacity="0.7">
<path opacity="0.7" d="M57.384 138.812L57.4441 138.736C57.5683 138.575 57.6905 138.406 57.8107 138.231L57.8769 138.135C57.9931 137.97 58.1033 137.802 58.2075 137.63L58.2616 137.544C58.3818 137.347 58.496 137.15 58.5982 136.943C58.8147 136.529 59.0034 136.106 59.1632 135.674L59.2234 135.508C59.2775 135.351 59.3315 135.194 59.3796 135.038L59.4397 134.815C59.4798 134.674 59.5158 134.531 59.5479 134.386C59.5479 134.305 59.5839 134.224 59.602 134.143C59.62 134.062 59.6561 133.86 59.6801 133.714C59.7042 133.567 59.6802 133.547 59.7162 133.466C59.7523 133.385 59.7523 133.158 59.7643 133.001C59.7643 132.93 59.7643 132.855 59.7643 132.784C59.7643 132.557 59.7643 132.324 59.7643 132.097V90.3639H51.4392V69.9093H41.2207V90.3639H34.176V60.9857H23.9574V90.3639H20.1165V56.7866H9.89796V90.3639H0.881622V132.102C0.881622 138.913 7.61983 144.431 15.9088 144.431H44.7611C47.1199 144.439 49.4482 143.983 51.5604 143.101C53.6727 142.218 55.5104 140.933 56.9272 139.348V139.348C57.0754 139.169 57.2277 138.991 57.384 138.812Z" fill="url(#paint1_linear)"/>
</g>
<path d="M20.7176 76.2156H11.1001V126.746H20.7176V76.2156Z" fill="#535461"/>
<path d="M20.7176 59.5404H11.1001V76.2153H20.7176V59.5404Z" fill="#B9B7FF"/>
<path d="M33.9415 80.2578H24.3241V130.788H33.9415V80.2578Z" fill="#535461"/>
<path d="M33.9415 63.5829H24.3241V80.2578H33.9415V63.5829Z" fill="#4D8AF0"/>
<path d="M50.1709 88.8479H40.5535V139.378H50.1709V88.8479Z" fill="#535461"/>
<path d="M50.1709 72.173H40.5535V88.8479H50.1709V72.173Z" fill="#B9B7FF"/>
<path d="M2.68489 91.8796H57.9851V132.051C57.9851 135.2 56.4969 138.221 53.8478 140.448C51.1988 142.675 47.6058 143.926 43.8595 143.926H16.8105C13.0641 143.926 9.47125 142.675 6.82218 140.448C4.17312 138.221 2.68489 135.2 2.68489 132.051V91.8796Z" fill="#6C63FF"/>
<g opacity="0.1">
<path opacity="0.1" d="M2.68489 91.8796V93.9008H55.5807V134.072C55.5857 136.727 54.527 139.307 52.5753 141.394C54.2622 140.285 55.6261 138.867 56.5634 137.248C57.5008 135.629 57.987 133.852 57.9851 132.051V91.8796H2.68489Z" fill="black"/>
</g>
<defs>
<linearGradient id="paint0_linear" x1="8708.16" y1="48487.1" x2="19563.7" y2="48487.1" gradientUnits="userSpaceOnUse">
<stop stop-color="#808080" stop-opacity="0.25"/>
<stop offset="0.54" stop-color="#808080" stop-opacity="0.12"/>
<stop offset="1" stop-color="#808080" stop-opacity="0.1"/>
</linearGradient>
<linearGradient id="paint1_linear" x1="54938.4" y1="49863.5" x2="60708.9" y2="49863.5" gradientUnits="userSpaceOnUse">
<stop stop-color="#808080" stop-opacity="0.25"/>
<stop offset="0.54" stop-color="#808080" stop-opacity="0.12"/>
<stop offset="1" stop-color="#808080" stop-opacity="0.1"/>
</linearGradient>
</defs>
</svg>
