<svg width="89" height="26" viewBox="0 0 89 26" fill="none" xmlns="http://www.w3.org/2000/svg">
<rect x="25" y="13" width="3" height="13" rx="1.5" fill="#C4C3E7"/>
<path d="M37.1408 19.848C37.1408 20.168 37.0288 20.44 36.8048 20.664C36.5808 20.888 36.3088 21 35.9888 21C35.6688 21 35.3968 20.888 35.1728 20.664C34.9648 20.44 34.8608 20.168 34.8608 19.848V4.392C34.8608 4.072 34.9728 3.8 35.1968 3.576C35.4208 3.352 35.6928 3.24 36.0128 3.24C36.3328 3.24 36.5968 3.352 36.8048 3.576C37.0288 3.8 37.1408 4.072 37.1408 4.392V19.848Z" fill="black"/>
<path d="M46.6449 8.208C47.7329 8.208 48.7169 8.488 49.5969 9.048C50.4769 9.592 51.1649 10.36 51.6609 11.352C52.1729 12.344 52.4289 13.464 52.4289 14.712C52.4289 15.96 52.1729 17.08 51.6609 18.072C51.1649 19.048 50.4769 19.816 49.5969 20.376C48.7169 20.936 47.7489 21.216 46.6929 21.216C45.8609 21.216 45.0849 21.032 44.3649 20.664C43.6449 20.296 43.0609 19.848 42.6129 19.32V24.648C42.6129 24.968 42.5009 25.24 42.2769 25.464C42.0689 25.688 41.7969 25.8 41.4609 25.8C41.1409 25.8 40.8689 25.688 40.6449 25.464C40.4369 25.256 40.3329 24.984 40.3329 24.648V9.552C40.3329 9.216 40.4369 8.936 40.6449 8.712C40.8529 8.488 41.1249 8.376 41.4609 8.376C41.7969 8.376 42.0689 8.488 42.2769 8.712C42.5009 8.936 42.6129 9.216 42.6129 9.552V10.248C42.9969 9.688 43.5569 9.208 44.2929 8.808C45.0289 8.408 45.8129 8.208 46.6449 8.208ZM46.3809 19.104C47.1169 19.104 47.7809 18.912 48.3729 18.528C48.9649 18.144 49.4209 17.624 49.7409 16.968C50.0769 16.296 50.2449 15.544 50.2449 14.712C50.2449 13.88 50.0769 13.136 49.7409 12.48C49.4209 11.808 48.9649 11.28 48.3729 10.896C47.7809 10.512 47.1169 10.32 46.3809 10.32C45.6289 10.32 44.9569 10.512 44.3649 10.896C43.7729 11.264 43.3089 11.784 42.9729 12.456C42.6529 13.128 42.4929 13.88 42.4929 14.712C42.4929 15.544 42.6529 16.296 42.9729 16.968C43.3089 17.64 43.7729 18.168 44.3649 18.552C44.9569 18.92 45.6289 19.104 46.3809 19.104Z" fill="black"/>
<path d="M75.6449 8.208C76.7329 8.208 77.7169 8.488 78.5969 9.048C79.4769 9.592 80.1649 10.36 80.6609 11.352C81.1729 12.344 81.4289 13.464 81.4289 14.712C81.4289 15.96 81.1729 17.08 80.6609 18.072C80.1649 19.048 79.4769 19.816 78.5969 20.376C77.7169 20.936 76.7489 21.216 75.6929 21.216C74.8609 21.216 74.0849 21.032 73.3649 20.664C72.6449 20.296 72.0609 19.848 71.6129 19.32V24.648C71.6129 24.968 71.5009 25.24 71.2769 25.464C71.0689 25.688 70.7969 25.8 70.4609 25.8C70.1409 25.8 69.8689 25.688 69.6449 25.464C69.4369 25.256 69.3329 24.984 69.3329 24.648V9.552C69.3329 9.216 69.4369 8.936 69.6449 8.712C69.8529 8.488 70.1249 8.376 70.4609 8.376C70.7969 8.376 71.0689 8.488 71.2769 8.712C71.5009 8.936 71.6129 9.216 71.6129 9.552V10.248C71.9969 9.688 72.5569 9.208 73.2929 8.808C74.0289 8.408 74.8129 8.208 75.6449 8.208ZM75.3809 19.104C76.1169 19.104 76.7809 18.912 77.3729 18.528C77.9649 18.144 78.4209 17.624 78.7409 16.968C79.0769 16.296 79.2449 15.544 79.2449 14.712C79.2449 13.88 79.0769 13.136 78.7409 12.48C78.4209 11.808 77.9649 11.28 77.3729 10.896C76.7809 10.512 76.1169 10.32 75.3809 10.32C74.6289 10.32 73.9569 10.512 73.3649 10.896C72.7729 11.264 72.3089 11.784 71.9729 12.456C71.6529 13.128 71.4929 13.88 71.4929 14.712C71.4929 15.544 71.6529 16.296 71.9729 16.968C72.3089 17.64 72.7729 18.168 73.3649 18.552C73.9569 18.92 74.6289 19.104 75.3809 19.104Z" fill="black"/>
<path d="M18.6583 18.768C18.9943 18.768 19.2663 18.872 19.4743 19.08C19.6983 19.288 19.8103 19.56 19.8103 19.896C19.8103 20.216 19.6983 20.48 19.4743 20.688C19.2663 20.896 18.9943 21 18.6583 21H10.5463C10.2103 21 9.93034 20.888 9.70634 20.664C9.49834 20.44 9.39434 20.168 9.39434 19.848V5.352C9.39434 5.032 9.50634 4.76 9.73034 4.536C9.95434 4.312 10.2423 4.2 10.5943 4.2C10.9143 4.2 11.1863 4.312 11.4103 4.536C11.6503 4.76 11.7703 5.032 11.7703 5.352V18.768H18.6583Z" fill="black"/>
<path d="M67.3307 14.712C67.3307 15.96 67.0507 17.08 66.4907 18.072C65.9307 19.064 65.1627 19.84 64.1867 20.4C63.2267 20.96 62.1627 21.24 60.9947 21.24C59.8267 21.24 58.7547 20.96 57.7787 20.4C56.8187 19.84 56.0587 19.064 55.4987 18.072C54.9387 17.08 54.6587 15.96 54.6587 14.712C54.6587 13.464 54.9387 12.336 55.4987 11.328C56.0587 10.32 56.8187 9.536 57.7787 8.976C58.7547 8.416 59.8267 8.136 60.9947 8.136C62.1627 8.136 63.2267 8.416 64.1867 8.976C65.1627 9.536 65.9307 10.32 66.4907 11.328C67.0507 12.336 67.3307 13.464 67.3307 14.712ZM65.0507 14.712C65.0507 13.848 64.8667 13.08 64.4987 12.408C64.1467 11.72 63.6587 11.192 63.0347 10.824C62.4267 10.44 61.7467 10.248 60.9947 10.248C60.2427 10.248 59.5547 10.44 58.9307 10.824C58.3227 11.192 57.8347 11.72 57.4667 12.408C57.1147 13.08 56.9387 13.848 56.9387 14.712C56.9387 15.56 57.1147 16.32 57.4667 16.992C57.8347 17.664 58.3227 18.192 58.9307 18.576C59.5547 18.944 60.2427 19.128 60.9947 19.128C61.7467 19.128 62.4267 18.944 63.0347 18.576C63.6587 18.192 64.1467 17.664 64.4987 16.992C64.8667 16.32 65.0507 15.56 65.0507 14.712Z" fill="black"/>
<circle cx="26.5" cy="15.5" r="5.5" fill="#6561D7"/>
<circle cx="28" cy="13" r="1" fill="white"/>
</svg>
