<svg width="300" height="360" viewBox="0 0 286 360" fill="none" xmlns="http://www.w3.org/2000/svg">
<path fill-rule="evenodd" clip-rule="evenodd" d="M141.927 75.618C144.577 85.0754 148.031 106.333 144.507 109.668H122.208C122.206 109.63 122.204 109.591 122.202 109.553C113.937 108.668 107.509 101.882 107.509 93.6434V78.0079C107.509 69.167 114.91 62 124.041 62H125.578C133.87 62 140.735 67.9106 141.927 75.618Z" fill="#191847"/>
<path fill-rule="evenodd" clip-rule="evenodd" d="M116.169 90.6579C112.626 86.6308 110.228 81.6955 110.628 76.1654C111.783 60.2317 134.689 63.7369 139.144 71.7789C143.6 79.8209 143.071 100.22 137.312 101.657C135.016 102.231 130.123 100.826 125.144 97.9203L128.27 119.33H109.816L116.169 90.6579Z" fill="#D4A181"/>
<path fill-rule="evenodd" clip-rule="evenodd" d="M121.157 87.9661C122.007 96.8099 121.667 106.909 119.133 109.307H96.8347C95.5923 88.4044 107.599 96.4987 107.599 76.8186C108.348 76.1104 109.055 75.4094 109.755 74.8048L109.73 74.2261C113.592 66.5717 118.49 62.7446 124.426 62.7446C133.33 62.7446 136.14 66.7564 138.533 70.1626C136.744 76.1079 129.8 76.9894 123.63 80.6953C122.902 80.1231 121.975 79.7802 120.965 79.7802C118.629 79.7802 116.736 81.6136 116.736 83.8752C116.736 86.1368 118.629 87.9703 120.965 87.9703C121.029 87.9703 121.093 87.9689 121.157 87.9661Z" fill="#191847"/>
<path fill-rule="evenodd" clip-rule="evenodd" d="M80.1422 254.16C98.5877 259.156 114.502 261.654 127.885 261.654C141.268 261.654 153.698 257.807 165.177 250.113C147.126 244.986 132.261 242.422 120.58 242.422C108.9 242.422 95.4207 246.334 80.1422 254.16Z" fill="#4A50BE"/>
<path fill-rule="evenodd" clip-rule="evenodd" d="M143.853 268.854C143.675 268.595 143.525 268.314 143.406 268.009C140.94 261.695 101.448 193.581 97.5134 181.128H141.976C144.967 190.596 158.431 250.014 160.326 261.869C166.305 280.568 178.614 341.129 180.185 345.324C181.838 349.738 172.537 354.335 170.058 348.91C166.115 340.276 156.718 316.387 152.534 301.801C148.611 288.126 145.417 275.824 143.853 268.854Z" fill="#BA8B72"/>
<path fill-rule="evenodd" clip-rule="evenodd" d="M107.476 277.17C89.421 281.589 23.379 289.578 18.8469 290.831C14.1848 292.12 10.097 282.814 15.8596 280.799C25.0289 277.591 50.2945 270.181 65.6131 267.157C77.9344 264.724 89.1778 262.739 96.7263 261.577C96.0869 241.045 93.1636 191.77 95.0796 181.128H134.421C132.583 191.333 117.051 265.797 114.164 273.25C113.248 275.911 110.515 277.087 107.476 277.17Z" fill="#D4A181"/>
<path fill-rule="evenodd" clip-rule="evenodd" d="M16.278 278.321C13.8672 277.887 12.1005 277.766 10.9778 277.957C9.61228 278.19 7.65981 278.751 5.12035 279.639C5.39966 281.173 7.90989 294.958 12.651 320.995C16.5158 321.443 18.3837 320.484 18.2546 318.119C18.1256 315.754 18.0395 313.785 17.9963 312.213L23.3456 291.48C23.4486 291.081 23.198 290.677 22.786 290.578C22.779 290.576 22.7719 290.574 22.7648 290.573L19.4446 289.866C18.0215 287.899 17.1879 286.245 16.9439 284.905C16.7456 283.816 16.9259 282.235 17.4848 280.161L17.4848 280.161C17.6993 279.365 17.207 278.552 16.3852 278.344C16.3498 278.335 16.314 278.328 16.278 278.321Z" fill="#E4E4E4"/>
<path fill-rule="evenodd" clip-rule="evenodd" d="M167.236 348.207C166.376 350.43 165.946 352.094 165.946 353.198C165.946 354.541 166.177 356.5 166.639 359.076C168.247 359.076 182.703 359.076 210.006 359.076C211.133 355.468 210.483 353.52 208.055 353.233C205.626 352.945 203.609 352.685 202.003 352.454L181.847 343.752C181.459 343.585 181.004 343.753 180.831 344.129C180.828 344.135 180.825 344.142 180.823 344.148L179.527 347.192C177.279 348.207 175.453 348.715 174.047 348.715C172.906 348.715 171.329 348.269 169.317 347.376L169.317 347.376C168.545 347.033 167.632 347.361 167.278 348.109C167.263 348.141 167.249 348.174 167.236 348.207Z" fill="#E4E4E4"/>
<path fill-rule="evenodd" clip-rule="evenodd" d="M95.2067 181.128C112.543 176.325 128.946 176.325 144.416 181.128C149.799 204.907 162.877 214.345 165.177 250.802C139.034 263.381 106.74 241.832 79.8287 254.098C72.1396 236.941 82.9043 195.621 95.2067 181.128Z" fill="#6561D7"/>
<path fill-rule="evenodd" clip-rule="evenodd" d="M169.79 151.578L200.149 147.568C206.222 144.297 211.808 142.082 216.909 140.925C218.345 140.884 220.628 141.389 217.226 144.135C213.825 146.881 210.373 149.919 210.979 151.384C211.585 152.85 214.749 152.305 215.273 154.559C215.622 156.061 210.488 156.306 199.87 155.291L175.237 164.748L169.79 151.578ZM74.4231 158.382L91.2601 158.443C72.7979 198.674 63.1714 219.738 62.3807 221.636C60.6015 225.906 64.3665 232.408 65.9766 235.903C60.7326 238.175 61.2914 229.76 54.6763 232.74C48.6383 235.46 44.0452 240.389 37.0693 236.221C36.2116 235.708 35.2718 233.779 37.5426 232.271C43.1999 228.515 51.3526 221.941 52.4541 219.777C53.9563 216.826 61.2793 196.361 74.4231 158.382Z" fill="#D4A181"/>
<path fill-rule="evenodd" clip-rule="evenodd" d="M120.542 106.673L133.724 107.523C136.971 135.966 154.655 153.932 194.25 147.85L199.51 184.478C162.503 189.109 130.048 174.762 123.397 135.918C121.675 125.862 120.315 115.398 120.542 106.673Z" fill="#AFB9C5"/>
<path fill-rule="evenodd" clip-rule="evenodd" d="M114.038 102.962L134.011 107.392C134.011 140.658 144.955 161.882 150.568 186.34H96.6243C95.8644 194.791 95.3978 203.478 95.1546 212.399H54.7637C63.9165 165.242 83.235 128.759 112.719 102.95H114.027L114.038 102.962Z" fill="#C5CFD6"/>
<path fill-rule="evenodd" clip-rule="evenodd" d="M105.135 138.882C103.745 159.611 104.563 175.43 107.588 186.34H96.6243C98.1296 169.598 100.786 153.779 105.135 138.882V138.882Z" fill="black" fill-opacity="0.1"/>
<path d="M35.6604 70C55.3551 70 71.3208 54.33 71.3208 35C71.3208 15.67 55.3551 0 35.6604 0C15.9657 0 0 15.67 0 35C0 54.33 15.9657 70 35.6604 70Z" fill="#F2F2F2"/>
<path d="M35.6604 9.24528C36.7752 9.24528 37.6789 8.3583 37.6789 7.26415C37.6789 6.17 36.7752 5.28302 35.6604 5.28302C34.5456 5.28302 33.6419 6.17 33.6419 7.26415C33.6419 8.3583 34.5456 9.24528 35.6604 9.24528Z" fill="black" fill-opacity="0.1"/>
<path d="M7.4012 36.9811C8.516 36.9811 9.41971 36.0941 9.41971 35C9.41971 33.9059 8.516 33.0189 7.4012 33.0189C6.28641 33.0189 5.38269 33.9059 5.38269 35C5.38269 36.0941 6.28641 36.9811 7.4012 36.9811Z" fill="black" fill-opacity="0.1"/>
<path d="M63.9196 36.9811C65.0344 36.9811 65.9381 36.0941 65.9381 35C65.9381 33.9059 65.0344 33.0189 63.9196 33.0189C62.8048 33.0189 61.9011 33.9059 61.9011 35C61.9011 36.0941 62.8048 36.9811 63.9196 36.9811Z" fill="black" fill-opacity="0.1"/>
<path d="M35.6604 64.717C36.7752 64.717 37.6789 63.83 37.6789 62.7359C37.6789 61.6417 36.7752 60.7547 35.6604 60.7547C34.5456 60.7547 33.6419 61.6417 33.6419 62.7359C33.6419 63.83 34.5456 64.717 35.6604 64.717Z" fill="black" fill-opacity="0.1"/>
<path fill-rule="evenodd" clip-rule="evenodd" d="M35.6604 11.2264L37.006 34.3396H34.3147L35.6604 11.2264Z" fill="#6561D7"/>
<path fill-rule="evenodd" clip-rule="evenodd" d="M47.5686 46.6877L35.1986 36.4146L37.1017 34.5468L47.5686 46.6877Z" fill="#6561D7"/>
<path d="M35.6603 37.6415C37.1467 37.6415 38.3517 36.4589 38.3517 35C38.3517 33.5411 37.1467 32.3585 35.6603 32.3585C34.174 32.3585 32.969 33.5411 32.969 35C32.969 36.4589 34.174 37.6415 35.6603 37.6415Z" fill="#6561D7"/>
<path fill-rule="evenodd" clip-rule="evenodd" d="M242.281 242.086C243.693 241.912 245.199 241.974 246.511 242.534C249.302 243.726 250.095 247.044 250.057 249.741C250.016 252.644 249.403 255.814 251.596 258.153C252.604 259.228 253.858 260.051 254.848 261.146C255.905 262.316 256.735 263.655 257.35 265.093C258.478 267.734 259.031 270.839 258 273.609C257.091 276.048 254.806 278.25 255.3 281.023C255.815 283.916 258.713 286.128 260.525 288.283C262.576 290.722 264.464 293.839 264.775 297.037C265.072 300.102 263.746 303.202 261.712 305.518C257.647 310.148 251.537 312.417 245.376 312.403C242.76 312.397 239.799 312.278 237.542 310.864C236.844 310.426 236.476 309.936 236.061 309.254C235.689 308.642 235.198 308.245 234.629 307.812C233.38 306.862 232.478 305.581 231.902 304.147C229.667 298.578 231.454 291.688 234.583 286.742C235.325 285.571 235.932 284.443 235.571 283.046C235.195 281.589 234.272 280.274 233.454 279.021C232.647 277.782 231.725 276.6 231.094 275.261C230.433 273.859 230.247 272.39 230.364 270.854C230.583 267.97 231.82 265.309 233.571 262.99C235.258 260.756 237.239 258.618 237.243 255.691C237.248 252.589 235.187 249.829 236.065 246.675C236.429 245.369 237.159 244.029 238.336 243.246C239.464 242.495 240.954 242.249 242.281 242.086Z" fill="#DDE3E9"/>
<path fill-rule="evenodd" clip-rule="evenodd" d="M241.359 247.045C241.386 246.629 241.877 246.379 242.264 246.488C242.772 246.631 242.763 247.109 242.749 247.536C242.708 248.846 242.896 250.12 243.21 251.391C243.86 254.035 245.062 256.47 246.015 259.01C246.967 261.547 247.413 264.167 246.855 266.852C246.329 269.383 245.502 271.849 244.963 274.383C244.488 276.617 243.983 278.973 244.706 281.201C245.402 283.346 246.94 285.093 248.048 287.031C250.34 291.043 251.358 295.495 251.494 300.075C251.557 302.203 251.5 304.349 251.01 306.435C250.727 307.637 250.348 309.26 249.325 310.09C248.854 310.472 248.047 310.604 247.65 310.038C247.277 309.507 247.604 308.684 247.723 308.118C248.235 305.667 248.338 303.162 248.215 300.674C248.097 298.263 247.814 295.856 247.06 293.554C246.36 291.418 245.297 289.499 244.046 287.63C242.771 285.725 241.446 283.816 240.919 281.559C240.384 279.267 240.819 276.935 241.4 274.687C242.015 272.308 242.82 269.999 243.653 267.685C244.464 265.43 244.752 263.297 244.304 260.938C243.419 256.276 241.051 251.9 241.359 247.045Z" fill="#C5CFD6"/>
<path fill-rule="evenodd" clip-rule="evenodd" d="M279.543 247.742C281.289 248.276 283.023 249.137 284.268 250.487C286.915 253.358 286.103 257.697 284.642 260.867C283.069 264.278 280.685 267.707 282.029 271.621C282.647 273.42 283.685 275.049 284.271 276.863C284.897 278.8 285.167 280.818 285.133 282.84C285.069 286.554 284.087 290.516 281.422 293.252C279.076 295.661 275.239 297.068 274.362 300.606C273.447 304.298 275.684 308.431 276.678 311.928C277.803 315.886 278.38 320.561 277.064 324.505C275.803 328.286 272.621 331.257 269.018 332.932C261.819 336.279 253.46 335.764 246.241 332.522C243.177 331.145 239.765 329.454 237.861 326.599C237.272 325.717 237.098 324.944 236.97 323.921C236.855 323.003 236.488 322.275 236.048 321.466C235.082 319.688 234.697 317.701 234.774 315.703C235.077 307.947 240.792 300.734 247.059 296.524C248.544 295.526 249.849 294.511 250.16 292.671C250.484 290.75 250.091 288.711 249.791 286.801C249.494 284.914 249.034 283.034 248.997 281.119C248.958 279.114 249.511 277.28 250.455 275.525C252.227 272.23 255.075 269.73 258.348 267.904C261.499 266.145 264.945 264.654 266.488 261.195C268.123 257.528 267.155 253.186 269.841 249.915C270.954 248.561 272.514 247.358 274.305 247.048C276.023 246.751 277.9 247.241 279.543 247.742Z" fill="#DDE3E9"/>
<path fill-rule="evenodd" clip-rule="evenodd" d="M275.975 253.805C276.223 253.326 276.927 253.289 277.323 253.622C277.843 254.06 277.583 254.621 277.345 255.119C276.615 256.649 276.173 258.257 275.877 259.928C275.262 263.401 275.4 266.92 275.193 270.43C274.985 273.936 274.144 277.274 272.094 280.159C270.162 282.879 267.912 285.363 265.963 288.081C264.245 290.476 262.428 292.999 262.114 296.019C261.812 298.926 262.701 301.806 262.988 304.686C263.581 310.647 262.454 316.455 260.229 321.951C259.196 324.503 258.012 327.016 256.353 329.228C255.398 330.501 254.11 332.224 252.482 332.666C251.731 332.87 250.719 332.602 250.55 331.721C250.391 330.896 251.201 330.094 251.634 329.486C253.508 326.854 254.932 323.942 256.084 320.93C257.2 318.013 258.121 315.014 258.438 311.889C258.732 308.99 258.487 306.157 257.997 303.284C257.498 300.356 256.941 297.396 257.5 294.446C258.067 291.449 259.789 288.916 261.639 286.561C263.595 284.069 265.739 281.758 267.916 279.457C270.038 277.215 271.485 274.841 272.189 271.81C273.58 265.823 273.088 259.392 275.975 253.805Z" fill="#C5CFD6"/>
<path fill-rule="evenodd" clip-rule="evenodd" d="M225.555 269.765C228.459 269.765 231.012 271.314 232.771 273.512C234.83 276.085 235.246 279.228 236.082 282.294C236.498 283.821 237.214 285.336 238.468 286.373C239.609 287.316 241.057 287.505 242.422 287.965C245.151 288.886 247.354 291.104 248.224 293.811C249.286 297.112 248.161 300.441 248.355 303.787C248.533 306.86 251.543 308.777 253.965 310.25C256.353 311.702 258.505 313.062 259.224 315.891C259.987 318.892 260.243 322.242 259.186 325.206C257.427 330.142 252.28 332.316 247.306 332.653C242.791 332.959 237.116 332.479 233.726 329.181C231.697 327.208 230.962 324.448 231.054 321.702C231.11 319.995 231.446 318.303 231.881 316.653C232.189 315.484 232.605 314.319 232.723 313.111C233.038 309.896 230.086 309.278 227.573 308.396C224.379 307.274 222.143 305.155 220.588 302.203C219.14 299.454 218.533 296.368 219.401 293.342C219.844 291.797 220.648 290.395 221.739 289.202C222.219 288.677 222.895 288.24 223.328 287.688C223.733 287.173 223.645 286.506 223.505 285.903C222.861 283.117 220.853 280.81 220.135 278.029C219.487 275.519 219.87 272.395 222.151 270.775C223.136 270.075 224.351 269.772 225.555 269.765Z" fill="#C5CFD6"/>
<path fill-rule="evenodd" clip-rule="evenodd" d="M229.512 277.024C232.59 280.323 233.426 284.8 233.672 289.139C233.809 291.572 233.666 294.138 234.376 296.498C234.984 298.518 236.409 300.062 237.877 301.521C240.834 304.458 244.13 307.445 244.995 311.696C245.502 314.191 245.16 316.768 245.861 319.236C246.498 321.478 247.621 323.682 248.986 325.576C250.085 327.101 251.517 328.269 252.718 329.691C253.085 330.124 253.61 330.763 253.459 331.376C253.282 332.094 252.373 332.321 251.729 332.208C250.227 331.945 248.962 330.502 247.98 329.452C246.544 327.917 245.323 326.267 244.331 324.415C243.23 322.359 242.343 320.177 241.964 317.87C241.571 315.477 241.767 312.982 240.869 310.685C239.358 306.821 235.694 304.54 233.044 301.528C229.744 297.774 230.236 293.103 230.574 288.486C230.76 285.948 230.944 283.083 229.67 280.766C229.184 279.882 228.1 279.057 227.891 278.052C227.699 277.131 228.744 276.201 229.512 277.024Z" fill="#AFB9C5"/>
<path fill-rule="evenodd" clip-rule="evenodd" d="M232.794 331.244C232.794 350.113 235.854 360 252.007 360C268.161 360 271.22 350.113 271.221 331.244H232.794Z" fill="#6561D7"/>
</svg>
